<svg xmlns="http://www.w3.org/2000/svg" viewBox="0 0 720 520">
<defs><linearGradient id="g" x1="0" y1="0" x2="1" y2="1"><stop stop-color="#07130b"/><stop offset="1" stop-color="#163d20"/></linearGradient></defs>
<rect width="720" height="520" fill="url(#g)"/><circle cx="590" cy="110" r="130" fill="#7fd36b" opacity=".12"/><path d="M360 430V250" stroke="#b6e89f" stroke-width="12"/><path d="M360 300C250 260 180 180 205 115c100 15 160 80 155 185Z" fill="#7fd36b" opacity=".82"/><path d="M360 330c105-38 180-105 168-185-92 12-155 73-158 162Z" fill="#9ce47f" opacity=".68"/><rect x="465" y="315" width="150" height="150" rx="18" fill="#f2f5ef"/><rect x="490" y="340" width="100" height="100" fill="#12261a"/><path d="M505 355h70v70h-70z" fill="#7fd36b"/><path d="M505 355l70 70M575 355l-70 70" stroke="#12261a" stroke-width="5"/><text x="48" y="72" fill="#f5f7f3" font-family="Arial,sans-serif" font-size="28" letter-spacing="5">SMART CAMPUS</text><text x="48" y="108" fill="#b6e89f" font-family="Arial,sans-serif" font-size="20" letter-spacing="3">PLANT INFORMATION SYSTEM</text></svg>
